<?xml version="1.0" encoding="UTF-8"?>
<svg version="1.1" xmlns="http://www.w3.org/2000/svg" width="1024" height="1024">
<path d="M0 0 C337.92 0 675.84 0 1024 0 C1024 337.92 1024 675.84 1024 1024 C686.08 1024 348.16 1024 0 1024 C0 686.08 0 348.16 0 0 Z " fill="#FCFCFC" transform="translate(0,0)"/>
<path d="M0 0 C1.18047409 -0.00571014 2.36094818 -0.01142029 3.57719421 -0.01730347 C4.87903152 -0.01842133 6.18086884 -0.01953918 7.52215576 -0.02069092 C8.90186191 -0.02531838 10.28156677 -0.03034294 11.66127014 -0.03573608 C15.41556658 -0.04887112 19.16984512 -0.05530746 22.92416096 -0.05974674 C25.26969202 -0.06267637 27.61521817 -0.06678102 29.96074677 -0.07125092 C37.29916812 -0.08493025 44.63757829 -0.09459413 51.97601151 -0.09845281 C60.44711769 -0.10293142 68.91806233 -0.12046825 77.38911939 -0.1494534 C83.93612411 -0.17107714 90.48308342 -0.1811575 97.03012347 -0.18249393 C100.94050727 -0.18354168 104.85073931 -0.18944288 108.76108551 -0.20731354 C112.44157014 -0.22380574 116.12178916 -0.22594428 119.80229759 -0.21717453 C121.79308885 -0.21603829 123.78387134 -0.22974777 125.77461243 -0.243927 C126.96636581 -0.23835785 128.1581192 -0.2327887 129.38598633 -0.22705078 C130.41764042 -0.22851734 131.44929451 -0.2299839 132.51221085 -0.2314949 C137.28053912 0.3728213 141.28628629 2.322051 144.25946045 6.14044189 C147.33563632 10.35919737 147.56945687 13.1228238 147.55134583 18.21546936 C147.54868713 20.12235535 147.54868713 20.12235535 147.54597473 22.06776428 C147.53911982 23.47976698 147.53223716 24.89176954 147.52532959 26.30377197 C147.52181349 27.78886805 147.51884639 29.27396552 147.51638794 30.75906372 C147.51071027 33.96094918 147.50269501 37.1628178 147.49336433 40.3646946 C147.48017756 45.43894735 147.48192184 50.5131242 147.4875946 55.58738708 C147.48851469 56.44455427 147.48943477 57.30172145 147.49038273 58.18486339 C147.49335453 60.82565535 147.49651957 63.46644704 147.49969482 66.10723877 C147.5124665 77.03177695 147.51462097 87.95595743 147.47113037 98.88043213 C147.43951636 106.84818891 147.43643995 114.81539927 147.46588987 122.78317183 C147.4803714 126.99482281 147.4808292 131.20538156 147.44648933 135.41694069 C147.41438174 139.38936142 147.42038963 143.36000265 147.45399094 147.33239365 C147.4597486 148.77944152 147.45221811 150.22662257 147.42939949 151.67350197 C147.28314263 161.61111415 149.18545097 167.84022392 154.48741817 175.99724865 C162.38419948 188.66403822 162.4216446 206.28153224 159.7164917 220.60137939 C158.06752833 227.23761566 155.77471176 233.19390814 152.3024292 239.08966064 C151.22005219 241.68440004 151.47326199 242.52594464 152.44696045 245.14044189 C154.12499839 247.23910938 154.12499839 247.23910938 156.29241943 249.29473877 C157.10673935 250.10237671 157.92105927 250.91001465 158.76005554 251.74212646 C160.08813988 253.03757385 160.08813988 253.03757385 161.4430542 254.35919189 C162.34693375 255.25408325 163.25081329 256.14897461 164.18208313 257.07098389 C166.58466826 259.44860026 168.99296877 261.82006999 171.40509033 264.18798828 C174.80145222 267.52255482 178.19238974 270.86252034 181.5761261 274.2098999 C183.37733489 275.99131189 185.18346205 277.76776717 186.99491882 279.53875732 C187.8123909 280.34639526 188.62986298 281.1540332 189.47210693 281.98614502 C190.1930101 282.69355835 190.91391327 283.40097168 191.65666199 284.12982178 C195.86231874 288.85304433 195.87915016 293.08089489 195.75946045 299.22247314 C195.33378745 303.19719473 194.22989466 305.28427257 191.44696045 308.14044189 C187.0632259 311.06293159 183.66918446 311.6999659 178.44696045 311.14044189 C172.13633035 308.82716107 168.1293094 304.12278087 163.57196045 299.39044189 C158.68785413 294.36631903 153.7939706 289.49730641 148.47381592 284.93585205 C144.63060744 281.53149706 141.05561302 277.85224653 137.44696045 274.20294189 C136.67223389 273.42370361 135.89750732 272.64446533 135.0993042 271.84161377 C133.21285288 269.94351769 131.328798 268.04311041 129.44696045 266.14044189 C125.85921927 267.30027202 122.39850387 268.56485332 118.94696045 270.07794189 C100.10706405 277.6195496 80.85613193 276.54698689 62.3258667 268.61700439 C59.44696045 267.14044189 59.44696045 267.14044189 57.79294014 265.92344761 C52.133855 261.84248528 47.5702653 261.43938144 40.71990967 261.54449463 C39.15253555 261.53840683 39.15253555 261.53840683 37.55349731 261.53219604 C35.29678204 261.52669737 33.04001557 261.53263473 30.7833519 261.54885674 C27.21017352 261.57433133 23.6381455 261.56946065 20.06491089 261.55696106 C12.48380001 261.53624642 4.90304768 261.55588922 -2.67803955 261.57794189 C-11.47202835 261.59905258 -20.26564665 261.60362566 -29.05962753 261.57744026 C-32.57739994 261.57407955 -36.09446374 261.59529876 -39.6121521 261.61784363 C-41.76969558 261.61533246 -43.92723818 261.61177252 -46.08477783 261.60699463 C-47.06051758 261.61988022 -48.03625732 261.63276581 -49.04156494 261.64604187 C-54.7194664 261.60410731 -58.09298694 261.01301549 -62.55303955 257.14044189 C-66.7199853 251.62205428 -67.70290149 247.58086045 -67.7338562 240.82365417 C-67.74106072 240.07268937 -67.74826524 239.32172457 -67.75568807 238.54800326 C-67.77846273 236.02406236 -67.79399631 233.50013124 -67.80938721 230.97613525 C-67.82383508 229.16927856 -67.83859272 227.36242433 -67.8536377 225.55557251 C-67.98395655 209.05379695 -68.04978989 192.55134403 -68.10148048 176.04915524 C-68.14037937 163.85343814 -68.20871576 151.65864531 -68.31602824 139.46333402 C-68.38895616 130.88570855 -68.42732726 122.30833541 -68.44050634 113.73041254 C-68.44936067 108.60887803 -68.47352482 103.48848631 -68.53517532 98.3672924 C-68.59257096 93.54468447 -68.60705284 88.72380412 -68.58930206 83.90090561 C-68.5901779 82.13604948 -68.60633903 80.37112075 -68.63934708 78.6065731 C-68.90457957 63.64467583 -68.90457957 63.64467583 -63.20210266 57.25961304 C-61.67412219 55.8624397 -60.1257857 54.48702541 -58.55303955 53.14044189 C-57.38850094 51.83558426 -56.24276154 50.5132748 -55.13043213 49.16363525 C-50.75209932 44.14378216 -46.02804906 39.47226897 -41.3147583 34.76934814 C-40.34291771 33.79683233 -39.37122547 32.82416825 -38.39967346 31.85136414 C-36.38006567 29.83029385 -34.35868988 27.8110139 -32.33599854 25.79302979 C-29.74228344 23.20505731 -27.15314622 20.61255825 -24.56527996 18.01873875 C-22.56741977 16.01727271 -20.56719373 14.0181848 -18.56623268 12.01981926 C-17.1456641 10.60024111 -15.72710759 9.17865042 -14.30857849 7.7570343 C-13.45041031 6.90201828 -12.59224213 6.04700226 -11.70806885 5.16607666 C-10.95196823 4.41077164 -10.19586761 3.65546661 -9.41685486 2.87727356 C-6.26516546 -0.05968802 -4.21747194 0.01217843 0 0 Z " fill="#FBFBFB" transform="translate(158.55303955078125,352.85955810546875)"/>
<path d="M0 0 C1.18047409 -0.00571014 2.36094818 -0.01142029 3.57719421 -0.01730347 C4.87903152 -0.01842133 6.18086884 -0.01953918 7.52215576 -0.02069092 C8.90186191 -0.02531838 10.28156677 -0.03034294 11.66127014 -0.03573608 C15.41556658 -0.04887112 19.16984512 -0.05530746 22.92416096 -0.05974674 C25.26969202 -0.06267637 27.61521817 -0.06678102 29.96074677 -0.07125092 C37.29916812 -0.08493025 44.63757829 -0.09459413 51.97601151 -0.09845281 C60.44711769 -0.10293142 68.91806233 -0.12046825 77.38911939 -0.1494534 C83.93612411 -0.17107714 90.48308342 -0.1811575 97.03012347 -0.18249393 C100.94050727 -0.18354168 104.85073931 -0.18944288 108.76108551 -0.20731354 C112.44157014 -0.22380574 116.12178916 -0.22594428 119.80229759 -0.21717453 C121.79308885 -0.21603829 123.78387134 -0.22974777 125.77461243 -0.243927 C126.96636581 -0.23835785 128.1581192 -0.2327887 129.38598633 -0.22705078 C130.41764042 -0.22851734 131.44929451 -0.2299839 132.51221085 -0.2314949 C137.28053912 0.3728213 141.28628629 2.322051 144.25946045 6.14044189 C147.33563632 10.35919737 147.56945687 13.1228238 147.55134583 18.21546936 C147.54868713 20.12235535 147.54868713 20.12235535 147.54597473 22.06776428 C147.53911982 23.47976698 147.53223716 24.89176954 147.52532959 26.30377197 C147.52181349 27.78886805 147.51884639 29.27396552 147.51638794 30.75906372 C147.51071027 33.96094918 147.50269501 37.1628178 147.49336433 40.3646946 C147.48017756 45.43894735 147.48192184 50.5131242 147.4875946 55.58738708 C147.48851469 56.44455427 147.48943477 57.30172145 147.49038273 58.18486339 C147.49335453 60.82565535 147.49651957 63.46644704 147.49969482 66.10723877 C147.5124665 77.03177695 147.51462097 87.95595743 147.47113037 98.88043213 C147.43951636 106.84818891 147.43643995 114.81539927 147.46588987 122.78317183 C147.4803714 126.99482281 147.4808292 131.20538156 147.44648933 135.41694069 C147.41438174 139.38936142 147.42038963 143.36000265 147.45399094 147.33239365 C147.4597486 148.77944152 147.45221811 150.22662257 147.42939949 151.67350197 C147.28314263 161.61111415 149.18545097 167.84022392 154.48741817 175.99724865 C162.38419948 188.66403822 162.4216446 206.28153224 159.7164917 220.60137939 C158.06752833 227.23761566 155.77471176 233.19390814 152.3024292 239.08966064 C151.22005219 241.68440004 151.47326199 242.52594464 152.44696045 245.14044189 C154.12499839 247.23910938 154.12499839 247.23910938 156.29241943 249.29473877 C157.10673935 250.10237671 157.92105927 250.91001465 158.76005554 251.74212646 C160.08813988 253.03757385 160.08813988 253.03757385 161.4430542 254.35919189 C162.34693375 255.25408325 163.25081329 256.14897461 164.18208313 257.07098389 C166.58466826 259.44860026 168.99296877 261.82006999 171.40509033 264.18798828 C174.80145222 267.52255482 178.19238974 270.86252034 181.5761261 274.2098999 C183.37733489 275.99131189 185.18346205 277.76776717 186.99491882 279.53875732 C187.8123909 280.34639526 188.62986298 281.1540332 189.47210693 281.98614502 C190.1930101 282.69355835 190.91391327 283.40097168 191.65666199 284.12982178 C195.86231874 288.85304433 195.87915016 293.08089489 195.75946045 299.22247314 C195.33378745 303.19719473 194.22989466 305.28427257 191.44696045 308.14044189 C187.0632259 311.06293159 183.66918446 311.6999659 178.44696045 311.14044189 C172.13633035 308.82716107 168.1293094 304.12278087 163.57196045 299.39044189 C158.68785413 294.36631903 153.7939706 289.49730641 148.47381592 284.93585205 C144.63060744 281.53149706 141.05561302 277.85224653 137.44696045 274.20294189 C136.67223389 273.42370361 135.89750732 272.64446533 135.0993042 271.84161377 C133.21285288 269.94351769 131.328798 268.04311041 129.44696045 266.14044189 C125.85921927 267.30027202 122.39850387 268.56485332 118.94696045 270.07794189 C100.10706405 277.6195496 80.85613193 276.54698689 62.3258667 268.61700439 C59.44696045 267.14044189 59.44696045 267.14044189 57.79294014 265.92344761 C52.133855 261.84248528 47.5702653 261.43938144 40.71990967 261.54449463 C39.15253555 261.53840683 39.15253555 261.53840683 37.55349731 261.53219604 C35.29678204 261.52669737 33.04001557 261.53263473 30.7833519 261.54885674 C27.21017352 261.57433133 23.6381455 261.56946065 20.06491089 261.55696106 C12.48380001 261.53624642 4.90304768 261.55588922 -2.67803955 261.57794189 C-11.47202835 261.59905258 -20.26564665 261.60362566 -29.05962753 261.57744026 C-32.57739994 261.57407955 -36.09446374 261.59529876 -39.6121521 261.61784363 C-41.76969558 261.61533246 -43.92723818 261.61177252 -46.08477783 261.60699463 C-47.06051758 261.61988022 -48.03625732 261.63276581 -49.04156494 261.64604187 C-54.7194664 261.60410731 -58.09298694 261.01301549 -62.55303955 257.14044189 C-66.7199853 251.62205428 -67.70290149 247.58086045 -67.7338562 240.82365417 C-67.74106072 240.07268937 -67.74826524 239.32172457 -67.75568807 238.54800326 C-67.77846273 236.02406236 -67.79399631 233.50013124 -67.80938721 230.97613525 C-67.82383508 229.16927856 -67.83859272 227.36242433 -67.8536377 225.55557251 C-67.98395655 209.05379695 -68.04978989 192.55134403 -68.10148048 176.04915524 C-68.14037937 163.85343814 -68.20871576 151.65864531 -68.31602824 139.46333402 C-68.38895616 130.88570855 -68.42732726 122.30833541 -68.44050634 113.73041254 C-68.44936067 108.60887803 -68.47352482 103.48848631 -68.53517532 98.3672924 C-68.59257096 93.54468447 -68.60705284 88.72380412 -68.58930206 83.90090561 C-68.5901779 82.13604948 -68.60633903 80.37112075 -68.63934708 78.6065731 C-68.90457957 63.64467583 -68.90457957 63.64467583 -63.20210266 57.25961304 C-61.67412219 55.8624397 -60.1257857 54.48702541 -58.55303955 53.14044189 C-57.38850094 51.83558426 -56.24276154 50.5132748 -55.13043213 49.16363525 C-50.75209932 44.14378216 -46.02804906 39.47226897 -41.3147583 34.76934814 C-40.34291771 33.79683233 -39.37122547 32.82416825 -38.39967346 31.85136414 C-36.38006567 29.83029385 -34.35868988 27.8110139 -32.33599854 25.79302979 C-29.74228344 23.20505731 -27.15314622 20.61255825 -24.56527996 18.01873875 C-22.56741977 16.01727271 -20.56719373 14.0181848 -18.56623268 12.01981926 C-17.1456641 10.60024111 -15.72710759 9.17865042 -14.30857849 7.7570343 C-13.45041031 6.90201828 -12.59224213 6.04700226 -11.70806885 5.16607666 C-10.95196823 4.41077164 -10.19586761 3.65546661 -9.41685486 2.87727356 C-6.26516546 -0.05968802 -4.21747194 0.01217843 0 0 Z M3.44696045 12.14044189 C3.44553543 12.72402466 3.44411041 13.30760742 3.44264221 13.90887451 C3.42288227 20.0093219 3.36847435 26.10877714 3.29437256 32.20880127 C3.27124427 34.48216624 3.25680905 36.75563758 3.25140381 39.02911377 C3.24207681 42.30647674 3.20100163 45.5821786 3.1539917 48.85919189 C3.15989067 50.37216858 3.15989067 50.37216858 3.16590881 51.91571045 C3.03213121 58.45637582 1.86365383 63.15990588 -2.55303955 68.14044189 C-7.15396385 71.05123074 -11.47007661 72.23206617 -16.86260986 72.34576416 C-17.70317932 72.36570938 -18.54374878 72.3856546 -19.40979004 72.40620422 C-20.30784363 72.42291672 -21.20589722 72.43962921 -22.13116455 72.45684814 C-23.5210257 72.48801979 -23.5210257 72.48801979 -24.93896484 72.51982117 C-27.89358227 72.5851115 -30.84828723 72.64410621 -33.80303955 72.70294189 C-35.80825687 72.74614663 -37.8134654 72.78976154 -39.81866455 72.83380127 C-44.73003359 72.94077188 -49.64149052 73.04209707 -54.55303955 73.14044189 C-54.59970532 95.66228929 -54.63500173 118.18412874 -54.65666389 140.70601463 C-54.66698816 151.16268909 -54.68107038 161.61933356 -54.70391846 172.07598877 C-54.72381721 181.1871806 -54.73674762 190.29835071 -54.74121654 199.40956366 C-54.7438299 204.23643215 -54.74999614 209.0632385 -54.76449966 213.89008713 C-54.77802812 218.42900694 -54.78227184 222.96783875 -54.77925491 227.50677681 C-54.77980721 229.17655095 -54.78381277 230.8463279 -54.7914505 232.51608467 C-54.80133782 234.78822749 -54.79903145 237.06003394 -54.79354858 239.33218384 C-54.79539217 240.60610174 -54.79723576 241.88001965 -54.79913521 243.19254112 C-54.86244427 246.26159037 -54.86244427 246.26159037 -52.55303955 248.14044189 C-49.69106505 248.32865145 -46.92659165 248.39215982 -44.06427002 248.36749268 C-43.18615662 248.36778473 -42.30804321 248.36807678 -41.40332031 248.36837769 C-38.49218974 248.36698102 -35.58131308 248.35140402 -32.67022705 248.33575439 C-30.65526469 248.33202546 -28.64030052 248.32917793 -26.62533569 248.32717896 C-21.31521623 248.31953307 -16.00520573 248.2998764 -10.69512939 248.277771 C-5.27929153 248.25733311 0.1365639 248.24818165 5.5524292 248.23809814 C16.18398755 248.2166314 26.81546495 248.18248396 37.44696045 248.14044189 C36.89773926 247.14464111 36.34851807 246.14884033 35.78265381 245.12286377 C35.05454016 243.78515295 34.32677558 242.4472521 33.5993042 241.10919189 C33.23816528 240.456604 32.87702637 239.80401611 32.50494385 239.13165283 C23.57046458 222.61841106 21.89365825 202.99712022 27.12664795 185.06231689 C33.07321487 166.55579679 45.08418818 152.66621564 62.25946045 143.82794189 C79.78707367 135.24554024 98.51765907 135.19797693 116.8805542 141.27716064 C122.70078842 143.58054922 127.48112101 146.3620858 132.44696045 150.14044189 C133.10696045 150.14044189 133.76696045 150.14044189 134.44696045 150.14044189 C134.51699386 132.59046119 134.56992075 115.040524 134.60239697 97.4904356 C134.617876 89.3419039 134.63898523 81.19345894 134.67327881 73.04498291 C134.70314954 65.94404014 134.72252791 58.84316018 134.72922593 51.74215633 C134.73314217 47.98105236 134.74236714 44.22012811 134.76415062 40.45908165 C134.78825256 36.2638382 134.78893195 32.06890861 134.78753662 27.87359619 C134.79832245 26.62203232 134.80910828 25.37046844 134.82022095 24.08097839 C134.81403496 22.37092621 134.81403496 22.37092621 134.807724 20.62632751 C134.81048938 19.63355647 134.81325476 18.64078543 134.81610394 17.61793041 C134.6227363 15.13024566 134.6227363 15.13024566 133.25067139 13.32012177 C130.80404266 11.7199548 129.14350001 11.77110828 126.2268219 11.77967834 C125.14568619 11.77555435 124.06455048 11.77143036 122.95065308 11.7671814 C121.76454437 11.77796722 120.57843567 11.78875305 119.35638428 11.79986572 C118.10748917 11.79942764 116.85859406 11.79898956 115.57185364 11.79853821 C112.14630855 11.8002716 108.72130417 11.81532872 105.29585481 11.83626008 C101.71641265 11.85499915 98.13696349 11.85677513 94.55747986 11.8603363 C87.77889402 11.86966495 81.00045313 11.89428972 74.22193116 11.92438477 C66.5049793 11.95790337 58.78802056 11.97440838 51.07101405 11.98947108 C35.19624553 12.02083863 19.32162167 12.07361494 3.44696045 12.14044189 Z " fill="#040506" transform="translate(158.55303955078125,352.85955810546875)"/>
<path d="M0 0 C0.95865967 0.00499512 1.91731934 0.00999023 2.9050293 0.01513672 C14.86939662 0.30687695 24.80322644 4.08538121 34.25 11.5 C34.93578125 12.01175781 35.6215625 12.52351562 36.328125 13.05078125 C46.47139974 21.16152957 52.80689858 33.87947904 55.25 46.5 C56.73446428 64.05465322 53.0007904 80.33358099 41.625 94.1875 C32.15716561 104.25045541 19.33500692 110.95880252 5.46484375 111.703125 C-11.81043447 112.02210291 -26.68769346 108.20914923 -39.5 95.91015625 C-52.34016488 82.1560213 -55.34829647 67.45530377 -55.09375 49.26953125 C-54.81860509 42.17652475 -53.16081965 36.77121602 -49.75 30.5 C-49.30398437 29.61441406 -48.85796875 28.72882812 -48.3984375 27.81640625 C-41.3982756 14.96974042 -29.74458286 6.36471112 -15.98046875 1.8046875 C-10.63224392 0.29482654 -5.53747927 -0.03822669 0 0 Z " fill="#0069FE" transform="translate(250.75,502.5)"/>
<path d="M0 0 C9.06813674 7.02336081 13.52037034 16.73589799 15.390625 27.8515625 C16.45229212 42.09765379 12.97266415 54.40884364 4.390625 65.8515625 C8.845625 69.8115625 8.845625 69.8115625 13.390625 73.8515625 C9.09375 79.3203125 9.09375 79.3203125 7.390625 80.8515625 C3.390625 80.8515625 3.390625 80.8515625 1.48828125 78.99609375 C0.81667969 78.22652344 0.14507813 77.45695313 -0.546875 76.6640625 C-2.83633844 74.35448323 -2.83633844 74.35448323 -5.609375 72.8515625 C-9.11842321 73.00683012 -11.99919224 73.85611768 -15.3515625 74.88671875 C-24.741028 77.66753167 -33.74736444 75.55268753 -42.609375 71.8515625 C-52.13449157 66.51244243 -58.46595665 58.21132297 -61.609375 47.8515625 C-65.05754237 34.29187731 -63.03619736 20.20387819 -56.0703125 8.19921875 C-50.56704151 0.36162192 -42.4825467 -4.26018343 -33.30859375 -6.6796875 C-21.17190786 -8.78736088 -10.33398886 -6.59685452 0 0 Z " fill="#050607" transform="translate(682.609375,454.1484375)"/>
<path d="M0 0 C46.10759494 0 46.10759494 0 58.03515625 10.8515625 C66.67848205 20.06376962 68.3179369 29.84611905 68.1484375 42.015625 C67.74995573 52.71171454 64.05351934 60.92051421 57 69 C54.625 70.9140625 54.625 70.9140625 52 72.625 C51.154375 73.19476562 50.30875 73.76453125 49.4375 74.3515625 C33.47809252 82.00482381 17.84250465 79 0 79 C0 52.93 0 26.86 0 0 Z " fill="#030406" transform="translate(355,449)"/>
<path d="M0 0 C0.95865967 0.00499512 1.91731934 0.00999023 2.9050293 0.01513672 C14.86939662 0.30687695 24.80322644 4.08538121 34.25 11.5 C34.93578125 12.01175781 35.6215625 12.52351562 36.328125 13.05078125 C46.47139974 21.16152957 52.80689858 33.87947904 55.25 46.5 C56.73446428 64.05465322 53.0007904 80.33358099 41.625 94.1875 C32.15716561 104.25045541 19.33500692 110.95880252 5.46484375 111.703125 C-11.81043447 112.02210291 -26.68769346 108.20914923 -39.5 95.91015625 C-52.34016488 82.1560213 -55.34829647 67.45530377 -55.09375 49.26953125 C-54.81860509 42.17652475 -53.16081965 36.77121602 -49.75 30.5 C-49.30398437 29.61441406 -48.85796875 28.72882812 -48.3984375 27.81640625 C-41.3982756 14.96974042 -29.74458286 6.36471112 -15.98046875 1.8046875 C-10.63224392 0.29482654 -5.53747927 -0.03822669 0 0 Z M-33.3671875 30.4375 C-40.74450789 41.44096093 -42.32244714 53.53228424 -40.2890625 66.421875 C-37.24907112 77.6519608 -30.51107675 86.67088558 -20.640625 92.8125 C-18.70741894 93.83155436 -16.78103039 94.69605047 -14.75 95.5 C-13.71875 95.9125 -12.6875 96.325 -11.625 96.75 C1.41181888 99.27325527 13.79095772 97.42990128 24.96484375 90.22265625 C33.11443932 84.07911497 38.89125048 74.76791032 40.96484375 64.7421875 C42.54607113 52.30897493 40.70490057 41.11586481 33.625 30.625 C27.66426496 23.02450885 20.41153359 18.34323456 11.25 15.5 C10.37988281 15.22929688 10.37988281 15.22929688 9.4921875 14.953125 C-7.05183604 11.60973348 -22.69213252 17.37076603 -33.3671875 30.4375 Z " fill="#FAFAFB" transform="translate(250.75,502.5)"/>
<path d="M0 0 C6.94983516 3.97133438 11.22519875 9.48799266 13.6953125 17.0859375 C15.34108714 26.12090439 14.47242627 35.08591211 10.078125 43.1875 C5.11910721 49.92925329 -1.70787015 53.87375035 -9.921875 55.1875 C-19.39376705 56.00473538 -27.50040601 54.74289657 -35.234375 48.9375 C-42.12312077 41.88855084 -44.36302971 34.96223463 -45.296875 25.3125 C-45.01888747 17.10369169 -41.45214664 9.72580294 -35.859375 3.84375 C-26.13151287 -4.47200311 -11.35487599 -5.4142455 0 0 Z " fill="#040507" transform="translate(475.921875,473.8125)"/>
<path d="M0 0 C6.24201493 4.50873135 9.6972544 9.43595212 11.8125 16.8203125 C12.3851876 20.70913403 12.22265625 24.67470496 12.22265625 28.60546875 C-1.30734375 28.60546875 -14.83734375 28.60546875 -28.77734375 28.60546875 C-26.74630654 36.93464836 -26.74630654 36.93464836 -23.77734375 39.60546875 C-17.95357845 42.5173514 -10.57913959 42.71356061 -4.3515625 40.8984375 C-3.66707031 40.61613281 -2.98257813 40.33382812 -2.27734375 40.04296875 C1.22265625 38.60546875 1.22265625 38.60546875 3.30078125 38.80078125 C6.797946 40.26504129 7.60090492 43.3040464 9.22265625 46.60546875 C9.22265625 47.26546875 9.22265625 47.92546875 9.22265625 48.60546875 C7.61975095 49.42045437 6.01528347 50.23236802 4.41015625 51.04296875 C3.51683594 51.49542969 2.62351562 51.94789063 1.703125 52.4140625 C-5.64433354 55.94315676 -15.69390606 55.76619868 -23.6171875 53.95703125 C-31.42136021 50.74758237 -37.60054269 45.17412042 -41.0859375 37.5 C-44.20064382 28.96535274 -43.99604845 19.13913444 -40.16015625 10.890625 C-36.16488088 4.28826316 -30.8652557 -0.25871425 -23.546875 -2.765625 C-15.18356314 -4.66476916 -7.49473757 -4.35060376 0 0 Z " fill="#040506" transform="translate(812.77734375,474.39453125)"/>
<path d="M0 0 C5.28 0 10.56 0 16 0 C17.85765778 4.92727764 19.70889448 9.85690107 21.55419922 14.78881836 C22.1829684 16.4665641 22.81349302 18.14365303 23.44580078 19.82006836 C24.35390167 22.22860281 25.25568147 24.63942195 26.15625 27.05078125 C26.44060913 27.80087967 26.72496826 28.55097809 27.01794434 29.32380676 C28.14221978 32.34972338 29 34.74428721 29 38 C29.66 38 30.32 38 31 38 C31.21398437 36.82566406 31.42796875 35.65132813 31.6484375 34.44140625 C33.22194314 27.36063087 36.00530292 20.68082493 38.625 13.9375 C39.14641174 12.58160249 39.66724968 11.22548419 40.1875 9.86914062 C41.45069465 6.57638641 42.72552317 3.28849122 44 0 C48.95 0 53.9 0 59 0 C55.65771774 8.92866833 52.27917159 17.84260917 48.86486816 26.74395752 C48.28092705 28.26719078 47.6978589 29.79075893 47.11560059 31.31463623 C45.31193427 36.03347364 43.49086594 40.74499649 41.64776611 45.44857788 C41.05485252 46.96851102 40.46713826 48.49048385 39.88494873 50.01455688 C35.38136555 61.7848217 30.30092767 72.30392867 19.17578125 79.1171875 C16.45847046 80.21972294 14.2995421 80.23085575 11.375 80.1875 C10.41335938 80.18105469 9.45171875 80.17460938 8.4609375 80.16796875 C6 80 6 80 4 79 C4 74.71 4 70.42 4 66 C5.546875 66.103125 7.09375 66.20625 8.6875 66.3125 C12.72940333 66.32393396 13.67187278 66.2529314 17 63.6875 C20.20281003 59.84191195 20.20281003 59.84191195 20.74684143 55.13995361 C20.04769165 52.20051053 19.18668462 49.55669007 18.05053711 46.76074219 C17.6501976 45.76661316 17.24985809 44.77248413 16.83738708 43.74822998 C16.18891563 42.16355927 16.18891563 42.16355927 15.52734375 40.546875 C15.0848378 39.45030579 14.64233185 38.35373657 14.18641663 37.22393799 C12.77584383 33.7302733 11.35726955 30.23993633 9.9375 26.75 C8.51508497 23.2454227 7.09444079 19.74015985 5.6778717 16.23321533 C4.796768 14.0526673 3.91212144 11.87354698 3.02366638 9.69598389 C2.42788536 8.22370331 2.42788536 8.22370331 1.82006836 6.72167969 C1.46778671 5.85597351 1.11550507 4.99026733 0.75254822 4.09832764 C0 2 0 2 0 0 Z " fill="#040506" transform="translate(873,472)"/>
<path d="M0 0 C7.43287914 4.51281948 10.4306914 11.16487833 12.5 19.375 C13.65145852 28.89941 11.61743515 37.35768494 6.5 45.375 C4.5 45.375 4.5 45.375 2.0625 43 C0.7940625 41.700625 0.7940625 41.700625 -0.5 40.375 C-1.49 39.715 -2.48 39.055 -3.5 38.375 C-3.7475 38.931875 -3.995 39.48875 -4.25 40.0625 C-5.71606015 42.77471127 -7.52989471 45.01087365 -9.5 47.375 C-7.85 49.355 -6.2 51.335 -4.5 53.375 C-18.52072277 54.13401657 -18.52072277 54.13401657 -24.5 49.375 C-30.48212095 43.89020502 -33.10213152 38.09416226 -33.78125 30.0390625 C-34.02803086 20.55856452 -33.34747037 12.44666741 -27.1875 4.9375 C-19.96644514 -2.46295995 -9.66596624 -4.39195044 0 0 Z " fill="#FAFAFA" transform="translate(669.5,462.625)"/>
<path d="M0 0 C4.62 0 9.24 0 14 0 C14.01458252 1.13018555 14.02916504 2.26037109 14.04418945 3.42480469 C14.10220685 7.62206499 14.17943937 11.81879073 14.26245117 16.015625 C14.29568436 17.83129189 14.32372134 19.64706168 14.34643555 21.46289062 C14.38001141 24.07466442 14.43232762 26.68549654 14.48828125 29.296875 C14.49467117 30.10743347 14.5010611 30.91799194 14.50764465 31.75311279 C14.59354933 35.05354803 14.75645373 37.55049859 16.34448242 40.48144531 C19.42174137 43.30411905 22.88953706 43.33023951 26.9296875 43.29296875 C30.29136764 42.8172593 32.43787683 41.12468751 35 39 C36.60951543 35.78096915 36.24234748 32.25161168 36.31640625 28.7109375 C36.33718735 27.89251373 36.35796844 27.07408997 36.37937927 26.23086548 C36.44484812 23.61233034 36.50374726 20.99369361 36.5625 18.375 C36.60568776 16.60155193 36.64930214 14.82811419 36.69335938 13.0546875 C36.80052676 8.70322954 36.90180169 4.35166923 37 0 C41.62 0 46.24 0 51 0 C51 18.48 51 36.96 51 56 C46.71 56 42.42 56 38 56 C37.67 54.35 37.34 52.7 37 51 C36.46890625 51.34933594 35.9378125 51.69867187 35.390625 52.05859375 C34.33101562 52.74115234 34.33101562 52.74115234 33.25 53.4375 C32.55390625 53.88996094 31.8578125 54.34242188 31.140625 54.80859375 C25.86036335 57.74742551 19.89046611 57.58660243 14 57 C7.76117416 55.09627868 3.98582648 51.72197823 0.91064453 45.95825195 C-0.41100082 41.66485336 -0.24570715 37.57134443 -0.1953125 33.10546875 C-0.1924826 32.15811356 -0.18965271 31.21075836 -0.18673706 30.23469543 C-0.17557187 27.21883334 -0.15047389 24.20327184 -0.125 21.1875 C-0.11496547 19.13867617 -0.10584045 17.08984768 -0.09765625 15.04101562 C-0.07564449 10.02722852 -0.04113971 5.01366517 0 0 Z " fill="#030405" transform="translate(709,472)"/>
<path d="M0 0 C4.62 0 9.24 0 14 0 C14.01458252 1.06436279 14.02916504 2.12872559 14.04418945 3.2253418 C14.1022978 7.18596469 14.17952945 11.14602648 14.26245117 15.10620117 C14.29564169 16.81802238 14.32369189 18.52995148 14.34643555 20.24194336 C14.38009032 22.70733479 14.43240974 25.17174281 14.48828125 27.63671875 C14.49467117 28.39836838 14.5010611 29.16001801 14.50764465 29.94474792 C14.63151006 34.45258542 15.1883089 37.42951304 18 41 C21.70480341 43.46986894 24.70219701 43.67432448 29 43 C32.75212276 40.98497111 34.63644095 39.54533858 37 36 C37.24073135 33.24781023 37.37282688 30.58782534 37.4140625 27.83203125 C37.43342865 27.03721848 37.4527948 26.2424057 37.4727478 25.42350769 C37.53249442 22.88661405 37.57890883 20.34967491 37.625 17.8125 C37.66318435 16.09177716 37.70223635 14.37107335 37.7421875 12.65039062 C37.83819179 8.43374835 37.92224076 4.2170166 38 0 C42.29 0 46.58 0 51 0 C51 18.48 51 36.96 51 56 C47.04 56 43.08 56 39 56 C39 54.02 39 52.04 39 50 C37.4840625 51.175625 37.4840625 51.175625 35.9375 52.375 C29.57075759 56.86992014 22.65340895 57.9596751 15 57 C9.08646444 55.18679049 5.43865705 52.0568486 2 47 C-0.2563118 41.76869931 -0.26194066 37.03408276 -0.1953125 31.4453125 C-0.1924826 30.54376434 -0.18965271 29.64221619 -0.18673706 28.71334839 C-0.17559439 25.85042724 -0.1505008 22.98782566 -0.125 20.125 C-0.11496255 18.17708787 -0.10583804 16.22917081 -0.09765625 14.28125 C-0.07567443 9.5207113 -0.0411855 4.76040973 0 0 Z " fill="#020305" transform="translate(557,472)"/>
<path d="M0 0 C1.10204269 -0.00845947 2.20408539 -0.01691895 3.33952332 -0.02563477 C5.15369499 -0.01652573 5.15369499 -0.01652573 7.0045166 -0.00723267 C8.27785355 -0.01248962 9.55119049 -0.01774658 10.8631134 -0.02316284 C14.35691433 -0.03685148 17.85044981 -0.03153159 21.34425545 -0.02202559 C24.99839119 -0.01443692 28.65250401 -0.02147238 32.30664062 -0.02618408 C38.44344163 -0.03164396 44.58013437 -0.02444398 50.71691895 -0.01016235 C57.81463532 0.00616469 64.91209318 0.00087634 72.0098033 -0.01564157 C78.10075327 -0.02924987 84.19162536 -0.03117934 90.28258562 -0.02332556 C93.92176584 -0.0186454 97.56082451 -0.01803351 101.19999695 -0.02793503 C105.25608666 -0.03819977 109.31172981 -0.0239781 113.36779785 -0.00723267 C114.57724564 -0.01330536 115.78669342 -0.01937805 117.03279114 -0.02563477 C118.13483383 -0.01717529 119.23687653 -0.00871582 120.37231445 0 C121.81138027 0.00169662 121.81138027 0.00169662 123.27951813 0.00342751 C125.68615723 0.38095093 125.68615723 0.38095093 127.4948349 1.68601036 C129.48906432 4.52327805 129.04400746 7.04101544 128.68615723 10.38095093 C127.49441433 12.07505035 127.49441433 12.07505035 125.68615723 13.38095093 C123.28231144 13.76406097 123.28231144 13.76406097 120.37904358 13.77536011 C118.72814728 13.7923848 118.72814728 13.7923848 117.04389954 13.80975342 C115.8360228 13.80682281 114.62814606 13.80389221 113.38366699 13.8008728 C111.47607101 13.81357712 111.47607101 13.81357712 109.52993774 13.82653809 C106.04023042 13.84877907 102.55075904 13.85168352 99.06099057 13.84979057 C96.14839098 13.84967099 93.2358416 13.85823011 90.32325596 13.86656809 C83.45224571 13.88581144 76.58135696 13.88868262 69.71032715 13.88192749 C62.62046291 13.87528552 55.53111879 13.89815459 48.44136006 13.93524122 C42.35548193 13.96592215 36.26977126 13.97730004 30.18381733 13.97340441 C26.54840146 13.9713352 22.91339026 13.97684167 19.27804756 14.001297 C15.22436125 14.02766514 11.17177544 14.01384884 7.11804199 13.9961853 C5.91218948 14.00944855 4.70633698 14.02271179 3.46394348 14.03637695 C-4.6426515 13.95402805 -4.6426515 13.95402805 -8.09474182 11.00656128 C-9.31384277 8.38095093 -9.31384277 8.38095093 -9.25134277 5.75595093 C-7.3281088 0.8837582 -5.11358651 0.00602876 0 0 Z " fill="#0063FE" transform="translate(138.3138427734375,451.6190490722656)"/>
<path d="M0 0 C22.35294118 0 22.35294118 0 31 7 C35.9344376 12.07542153 38.13260921 17.85668489 38.375 24.875 C38.05125589 33.31824647 35.92372904 40.1199663 30.03515625 46.30859375 C21.11574396 53.72146423 11.3529046 53 0 53 C0 35.51 0 18.02 0 0 Z " fill="#FBFBFB" transform="translate(370,462)"/>
<path d="M0 0 C1.35180661 0.9748829 2.69080368 1.96860154 4 3 C2.5140084 7.59306496 0.14985318 10.43569245 -3 14 C-3.54527344 13.6390625 -4.09054687 13.278125 -4.65234375 12.90625 C-10.11806128 9.54273152 -14.55790707 7.68974381 -21 9 C-25.51500206 11.25750103 -27.78235125 13.51386814 -30 18 C-30.80983332 23.82934071 -30.7949869 29.22656769 -28.375 34.625 C-24.72352354 38.27647646 -21.7701452 39.8033172 -16.625 40.375 C-12.98685055 39.99863971 -10.23418001 39.16186408 -6.89453125 37.75390625 C-4.951597 36.9807386 -3.0364504 36.46508734 -1 36 C0.0055761 37.45449401 1.00430435 38.91372443 2 40.375 C2.556875 41.18710937 3.11375 41.99921875 3.6875 42.8359375 C5 45 5 45 5 47 C3.08588443 47.98414433 1.1686033 48.96213349 -0.75 49.9375 C-1.81734375 50.48277344 -2.8846875 51.02804687 -3.984375 51.58984375 C-11.08887944 54.91202782 -19.31135736 55.2195526 -26.8984375 53.24609375 C-36.06035657 49.73815177 -40.60013781 44.68833546 -45 36 C-47.63365914 28.54325425 -47.28719302 17.59652105 -44 10.4375 C-40.21639027 4.10661499 -34.60027836 -1.30822083 -27.45703125 -3.5625 C-17.89915993 -5.26437852 -8.53205549 -4.85920875 0 0 Z " fill="#040507" transform="translate(544,475)"/>
<path d="M0 0 C1.19092758 -0.01051392 1.19092758 -0.01051392 2.40591431 -0.02124023 C5.02747689 -0.03882973 7.6479579 -0.02719461 10.26953125 -0.01367188 C12.09269416 -0.01636653 13.91585568 -0.02024872 15.73901367 -0.02526855 C19.55889578 -0.03116488 23.3784036 -0.02259641 27.19824219 -0.00390625 C32.09457694 0.01888349 36.9900347 0.00576111 41.88633728 -0.01819611 C45.65074267 -0.03265052 49.41494015 -0.02804976 53.17935181 -0.01768494 C54.98467106 -0.01501666 56.79000919 -0.01829097 58.5953064 -0.02760315 C61.11873367 -0.03776305 63.64074099 -0.02227675 66.1640625 0 C67.28320541 -0.01214539 67.28320541 -0.01214539 68.42495728 -0.02453613 C71.84764446 0.03143994 73.77492951 0.29564573 76.58081055 2.32336426 C78.08203125 4.51757812 78.08203125 4.51757812 78.01953125 8.14257812 C77.08203125 11.51757812 77.08203125 11.51757812 74.08203125 13.51757812 C71.44558096 13.71697941 68.9145418 13.80095037 66.27758789 13.79223633 C65.08687935 13.79990273 65.08687935 13.79990273 63.87211609 13.807724 C61.24539675 13.82163573 58.61893932 13.82066206 55.9921875 13.81835938 C54.16759646 13.82224545 52.34300632 13.82657994 50.51841736 13.8313446 C46.69266834 13.83881022 42.8670116 13.83851308 39.04125977 13.83325195 C34.13720561 13.827457 29.2335291 13.84438723 24.32953739 13.86759663 C20.56088551 13.8823244 16.79232477 13.88320697 13.02364922 13.8800869 C11.21553232 13.8806006 9.40741039 13.88584744 7.59932137 13.89589882 C5.07125394 13.90822741 2.54392464 13.90149335 0.01586914 13.88989258 C-0.73179718 13.89753632 -1.4794635 13.90518005 -2.24978638 13.91305542 C-5.38930813 13.88119197 -7.6003402 13.69022957 -10.38258362 12.17790222 C-11.91796875 10.51757812 -11.91796875 10.51757812 -12.41796875 7.58007812 C-11.24882951 0.4191003 -6.35534934 -0.06897079 0 0 Z " fill="#0063FE" transform="translate(188.91796875,416.482421875)"/>
<path d="M0 0 C0 4.29 0 8.58 0 13 C-2.8153125 13.12375 -2.8153125 13.12375 -5.6875 13.25 C-10.62001303 13.65134835 -13.60084994 14.13200166 -17 18 C-18.60951543 21.21903085 -18.24234748 24.74838832 -18.31640625 28.2890625 C-18.33718735 29.10748627 -18.35796844 29.92591003 -18.37937927 30.76913452 C-18.44484812 33.38766966 -18.50374726 36.00630639 -18.5625 38.625 C-18.60568776 40.39844807 -18.64930214 42.17188581 -18.69335938 43.9453125 C-18.80052676 48.29677046 -18.90180169 52.64833077 -19 57 C-23.62 57 -28.24 57 -33 57 C-33 38.52 -33 20.04 -33 1 C-29.04 1 -25.08 1 -21 1 C-20.67 2.65 -20.34 4.3 -20 6 C-19.278125 5.38125 -18.55625 4.7625 -17.8125 4.125 C-11.87076264 -0.36431268 -7.26969175 -0.19385845 0 0 Z " fill="#030405" transform="translate(868,471)"/>
<path d="M0 0 C5.11762818 2.65358498 8.17705942 5.53117826 10 11 C10.66447134 18.45079333 10.62407344 23.96301523 6 30 C2.75771627 32.94753066 0.07735951 33.89836231 -4.3125 34.3125 C-8.7654615 33.93513038 -10.60424213 32.86752887 -14 30 C-18.44593574 24.23229958 -19.93800858 19.29268641 -19 12 C-17.60421085 7.59728222 -15.69493518 4.64645133 -12.3125 1.5 C-8.03458548 -0.43716884 -4.6208191 -0.82810378 0 0 Z " fill="#FAFAFA" transform="translate(465,483)"/>
<path d="M0 0 C1.088004 -0.00953201 2.176008 -0.01906403 3.29698181 -0.02888489 C5.05952049 -0.02751778 5.05952049 -0.02751778 6.85766602 -0.02612305 C8.06471695 -0.03040817 9.27176788 -0.0346933 10.51539612 -0.03910828 C13.06999077 -0.04485548 15.62460178 -0.04534899 18.17919922 -0.04101562 C22.09248724 -0.0378572 26.00501847 -0.06130594 29.91821289 -0.08666992 C32.39802964 -0.08894297 34.87784843 -0.08964639 37.35766602 -0.08862305 C38.53066757 -0.09783279 39.70366913 -0.10704254 40.91221619 -0.11653137 C42.54895042 -0.10718819 42.54895042 -0.10718819 44.21875 -0.09765625 C45.65745705 -0.09860039 45.65745705 -0.09860039 47.12522888 -0.0995636 C50.15151217 0.34475605 51.52522254 1.11422029 53.67407227 3.2746582 C54.41687356 9.21706858 54.41687356 9.21706858 52.4853363 11.96716309 C50.00344935 13.75876001 48.3040596 13.66829274 45.25634766 13.69458008 C43.59431053 13.71844788 43.59431053 13.71844788 41.8986969 13.74279785 C40.70179733 13.74299927 39.50489777 13.74320068 38.27172852 13.7434082 C37.04248154 13.75102173 35.81323456 13.75863525 34.54673767 13.76647949 C31.27827766 13.78006486 28.01022561 13.77788015 24.74176025 13.77209473 C21.42276632 13.7763378 18.10416813 13.82368633 14.78540039 13.8605957 C12.26001379 13.86580267 9.73462048 13.8684909 7.20922852 13.8684082 C5.41691551 13.8930011 5.41691551 13.8930011 3.58839417 13.91809082 C-4.64095916 13.84917507 -4.64095916 13.84917507 -8.11328125 10.93676758 C-9.6620966 7.53667041 -9.49930299 5.79478398 -8.32592773 2.2746582 C-4.98702657 0.04872409 -3.89763088 0.01873851 0 0 Z " fill="#0063FE" transform="translate(138.325927734375,486.725341796875)"/>
<path d="M0 0 C0.07414321 4.92957259 0.12859817 9.85882081 0.16479492 14.78881836 C0.17988384 16.4659592 0.20035748 18.14306057 0.22631836 19.82006836 C0.26269811 22.23040504 0.27972486 24.64022019 0.29296875 27.05078125 C0.30845261 27.80087967 0.32393646 28.55097809 0.33988953 29.32380676 C0.34080449 32.15235574 0.29163268 34.4425964 -1.03515625 36.97851562 C-4.15288843 38.59936446 -7.30430632 38.36581743 -10.73046875 38.29296875 C-11.48088943 38.28872391 -12.23131012 38.28447906 -13.00447083 38.28010559 C-15.39918026 38.2633245 -17.79304534 38.2256749 -20.1875 38.1875 C-21.8118368 38.17245235 -23.4361868 38.15876409 -25.06054688 38.14648438 C-29.04068948 38.11342305 -33.02020163 38.06164594 -37 38 C-33.36181581 33.65208077 -29.62230288 29.52802589 -25.5625 25.5625 C-22.44469936 22.49072627 -19.39890238 19.39944397 -16.5625 16.0625 C-13.41328691 12.37430178 -10.04639715 8.93344609 -6.625 5.5 C-6.08818604 4.95867432 -5.55137207 4.41734863 -4.99829102 3.85961914 C-1.12375307 0 -1.12375307 0 0 0 Z " fill="#F9F9F9" transform="translate(149,375)"/>
<path d="M0 0 C1.11283607 -0.00574036 1.11283607 -0.00574036 2.24815369 -0.01159668 C3.81234092 -0.01431241 5.37657382 -0.00697477 6.94067383 0.00976562 C9.3358251 0.03121401 11.72798768 0.00994065 14.12304688 -0.015625 C15.64453787 -0.01298225 17.166027 -0.00785837 18.6875 0 C19.40317642 -0.00809692 20.11885284 -0.01619385 20.85621643 -0.02453613 C24.07381575 0.03623602 25.83554098 0.12857227 28.25952148 2.33789062 C29.80793314 5.67464531 29.18141064 8.04413485 28.27734375 11.53125 C24.676251 13.9319785 22.03295286 13.83747383 17.87109375 13.83203125 C16.78942932 13.83845894 16.78942932 13.83845894 15.68591309 13.84501648 C14.16285247 13.85075381 12.63976446 13.85126442 11.11669922 13.84692383 C8.78565847 13.84376128 6.45588407 13.86723708 4.125 13.89257812 C2.64453285 13.89485093 1.16406229 13.8955547 -0.31640625 13.89453125 C-1.3618158 13.90834587 -1.3618158 13.90834587 -2.42834473 13.92243958 C-5.29130166 13.89503724 -7.24484558 13.86724891 -9.62695312 12.19213867 C-11.32977548 9.61096655 -11.65990436 7.60609273 -11.72265625 4.53125 C-8.56440987 0.02747553 -5.13255437 -0.05823271 0 0 Z " fill="#0162FE" transform="translate(140.72265625,521.46875)"/>
<path d="M0 0 C3.52471 2.05608083 5.66462524 4.11527343 7 8 C7 9.32 7 10.64 7 12 C-1.25 12 -9.5 12 -18 12 C-16.8565811 6.28290548 -15.80917917 5.0878996 -12 1 C-8.29778834 -0.85110583 -4.04093083 -0.46454795 0 0 Z " fill="#F0F1F1" transform="translate(803,483)"/>
<path d="M0 0 C3.31613882 1.44580966 5.49185728 3.24829792 8.03417969 5.80712891 C9.20494049 6.9781163 9.20494049 6.9781163 10.39935303 8.17276001 C11.23178528 9.01551483 12.06421753 9.85826965 12.921875 10.7265625 C13.78186096 11.58937836 14.64184692 12.45219421 15.52789307 13.34115601 C18.2733231 16.09778029 21.0117169 18.86127799 23.75 21.625 C25.61021783 23.49524857 27.47088946 25.36504589 29.33203125 27.234375 C33.89329945 31.8176936 38.44881011 36.40667478 43 41 C42.67 41.99 42.34 42.98 42 44 C38.68386118 42.55419034 36.50814272 40.75170208 33.96582031 38.19287109 C33.18531311 37.41221283 32.40480591 36.63155457 31.60064697 35.82723999 C30.76821472 34.98448517 29.93578247 34.14173035 29.078125 33.2734375 C28.21813904 32.41062164 27.35815308 31.54780579 26.47210693 30.65884399 C23.7266769 27.90221971 20.9882831 25.13872201 18.25 22.375 C16.38978217 20.50475143 14.52911054 18.63495411 12.66796875 16.765625 C8.10670055 12.1823064 3.55118989 7.59332522 -1 3 C-0.67 2.01 -0.34 1.02 0 0 Z " fill="#F9F9F9" transform="translate(299,607)"/>
<path d="M0 0 C0.66 0.33 1.32 0.66 2 1 C1.34 2.32 0.68 3.64 0 5 C-0.66 5 -1.32 5 -2 5 C-0.68 6.65 0.64 8.3 2 10 C1.67 10.66 1.34 11.32 1 12 C-1 10.875 -1 10.875 -3 9 C-3.4375 6 -3.4375 6 -3 3 C-1.5 1.125 -1.5 1.125 0 0 Z " fill="#0955FD" transform="translate(180,418)"/>
<path d="M0 0 C-1.2065625 0.185625 -1.2065625 0.185625 -2.4375 0.375 C-3.283125 0.58125 -4.12875 0.7875 -5 1 C-5.33 1.66 -5.66 2.32 -6 3 C-8.5654594 5.5654594 -10.47686668 5.54046087 -14 6 C-10.31063898 1.88494347 -5.74338985 -2.42989571 0 0 Z " fill="#054DFC" transform="translate(240,520)"/>
<path d="M0 0 C0.99 0.33 1.98 0.66 3 1 C2.01 2.98 1.02 4.96 0 7 C-0.66 7 -1.32 7 -2 7 C-1.125 1.125 -1.125 1.125 0 0 Z " fill="#1865FD" transform="translate(131,488)"/>
</svg>
